<?xml version="1.0" encoding="utf-8"?>
<!-- Generator: Adobe Illustrator 27.1.1, SVG Export Plug-In . SVG Version: 6.00 Build 0)  -->
<svg version="1.1" id="Layer_1" xmlns="http://www.w3.org/2000/svg" xmlns:xlink="http://www.w3.org/1999/xlink" x="0px" y="0px" preserveAspectRatio="none"
	 viewBox="0 0 312.69 713" style="enable-background:new 0 0 312.69 713;" xml:space="preserve">
<style type="text/css">
	
		.st0{clip-path:url(#SVGID_00000167384209763573526060000016321345754563605434_);fill:url(#SVGID_00000067952682387823577050000016516592844032674953_);}
	
		.st1{clip-path:url(#SVGID_00000167384209763573526060000016321345754563605434_);fill:url(#SVGID_00000047770327416451479760000012263790298300965289_);}
	.st2{filter:url(#Adobe_OpacityMaskFilter);}
	
		.st3{clip-path:url(#SVGID_00000167384209763573526060000016321345754563605434_);fill:url(#SVGID_00000147918593719459652960000015888174130995079328_);}
	.st4{clip-path:url(#SVGID_00000167384209763573526060000016321345754563605434_);}
	
		.st5{clip-path:url(#SVGID_00000167384209763573526060000016321345754563605434_);mask:url(#SVGID_00000183953674553217350810000007146587687479264678_);fill:url(#SVGID_00000085236086300540933940000013997719391261401749_);}
	
		.st6{clip-path:url(#SVGID_00000167384209763573526060000016321345754563605434_);fill:url(#SVGID_00000134243380799392161090000008402625812133271169_);}
</style>
<g>
	<defs>
		<rect id="SVGID_1_" width="312.69" height="713"/>
	</defs>
	<clipPath id="SVGID_00000008864764593066457810000012289452937581569466_">
		<use xlink:href="#SVGID_1_"  style="overflow:visible;"/>
	</clipPath>
	
		<linearGradient id="SVGID_00000018921100963154449440000009074384749472291763_" gradientUnits="userSpaceOnUse" x1="85.9436" y1="12.8747" x2="125.7552" y2="187.3685">
		<stop  offset="6.200396e-04" style="stop-color:#FFE29E"/>
		<stop  offset="0.9078" style="stop-color:#E9978A"/>
	</linearGradient>
	
		<rect x="-15.97" y="-12.55" style="clip-path:url(#SVGID_00000008864764593066457810000012289452937581569466_);fill:url(#SVGID_00000018921100963154449440000009074384749472291763_);" width="345.6" height="672.27"/>
	
		<linearGradient id="SVGID_00000141452529007471891060000015159167109213081759_" gradientUnits="userSpaceOnUse" x1="-58.634" y1="303.6423" x2="273.4124" y2="666.1827">
		<stop  offset="6.200396e-04" style="stop-color:#524185"/>
		<stop  offset="0.4257" style="stop-color:#383979"/>
		<stop  offset="0.9078" style="stop-color:#2A2B67"/>
	</linearGradient>
	
		<path style="clip-path:url(#SVGID_00000008864764593066457810000012289452937581569466_);fill:url(#SVGID_00000141452529007471891060000015159167109213081759_);" d="
		M-18.51,207.68c0,0,13.55,25.41,41.51,32.19s52.52-12.71,88.09-16.09s42.35,21.18,82.16,22.87c39.81,1.69,88.09,21.18,127.91,60.14
		s44.89,73.69,44.89,73.69l5.93,341.36l-421.83,3.39L-18.51,207.68z"/>
	<defs>
		<filter id="Adobe_OpacityMaskFilter" filterUnits="userSpaceOnUse" x="102.21" y="520.4" width="216.85" height="168.56">
			<feColorMatrix  type="matrix" values="1 0 0 0 0  0 1 0 0 0  0 0 1 0 0  0 0 0 1 0"/>
		</filter>
	</defs>
	
		<mask maskUnits="userSpaceOnUse" x="102.21" y="520.4" width="216.85" height="168.56" id="SVGID_00000012460707528331211320000008810813793419753369_">
		<g class="st2">
			<g>
				
					<linearGradient id="SVGID_00000007418262693725144360000008963499178595249556_" gradientUnits="userSpaceOnUse" x1="250.9324" y1="653.2415" x2="222.28" y2="558.8572">
					<stop  offset="6.200396e-04" style="stop-color:#FDFCFD"/>
					<stop  offset="1" style="stop-color:#000000"/>
				</linearGradient>
				
					<rect x="105.96" y="490.72" style="clip-path:url(#SVGID_00000008864764593066457810000012289452937581569466_);fill:url(#SVGID_00000007418262693725144360000008963499178595249556_);" width="245.49" height="178.58"/>
				<path style="clip-path:url(#SVGID_00000008864764593066457810000012289452937581569466_);" d="M350.95,491.22V668.8H106.45
					V491.22H350.95 M351.95,490.22H105.45V669.8h246.49V490.22L351.95,490.22z"/>
			</g>
		</g>
	</mask>
	
		<linearGradient id="SVGID_00000168095008396053881550000005831013855263913882_" gradientUnits="userSpaceOnUse" x1="182.7826" y1="596.8056" x2="217.512" y2="667.9584">
		<stop  offset="6.200396e-04" style="stop-color:#2F306E"/>
		<stop  offset="0.5262" style="stop-color:#2B3973"/>
		<stop  offset="1" style="stop-color:#2F4A7D"/>
	</linearGradient>
	
		<path style="clip-path:url(#SVGID_00000008864764593066457810000012289452937581569466_);mask:url(#SVGID_00000012460707528331211320000008810813793419753369_);fill:url(#SVGID_00000168095008396053881550000005831013855263913882_);" d="
		M312.86,619.51c0,0-3.12-30.49-35.31-62.68s-65.22-36.42-92.33-36.42s-83.01,16.09-83.01,16.09v147.39l216.85,5.08L312.86,619.51z"
		/>
	
		<linearGradient id="SVGID_00000049218617723489954980000010956368542235451302_" gradientUnits="userSpaceOnUse" x1="169.2221" y1="546.9575" x2="142.9633" y2="662.1573">
		<stop  offset="6.200396e-04" style="stop-color:#817CBA"/>
		<stop  offset="0.3149" style="stop-color:#B3B0D5"/>
		<stop  offset="0.7821" style="stop-color:#F1F0F7"/>
		<stop  offset="0.9257" style="stop-color:#FDFCFD"/>
	</linearGradient>
	
		<path style="clip-path:url(#SVGID_00000008864764593066457810000012289452937581569466_);fill:url(#SVGID_00000049218617723489954980000010956368542235451302_);" d="
		M336.41,640.53c0,0-34.51-0.25-52.52-23.72s-33.71-43.62-60.9-46.8c-27.19-3.18-47.97,14.94-72.08-1.48
		c-46.02-31.34-118.83-20.88-148.24-10.67s-65.22,40.32-76.24,96.22c-11.01,55.91-7.62,117.74-7.62,117.74h417.6V640.53z"/>
</g>
</svg>
